<?xml version="1.0" encoding="UTF-8"?>
<svg id="Layer_1" data-name="Layer 1" xmlns="http://www.w3.org/2000/svg" viewBox="0 0 105 94.9">
  <g>
    <path d="m50.64,18.36v7.27h-19.58c-.77,0-1.46.24-2.09.72-.62.48-1.16,1.12-1.62,1.91s-.82,1.72-1.08,2.77c-.26,1.06-.4,2.16-.4,3.31v26.42c0,1.1.12,2.17.36,3.2.24,1.03.59,1.96,1.04,2.77.46.82,1.01,1.46,1.66,1.94.65.48,1.36.72,2.12.72h10.15v-18.5h-9.65v-7.2h19.94v32.83h-25.13c-1.68,0-3.2-.41-4.57-1.22-1.37-.82-2.53-1.93-3.49-3.35-.96-1.42-1.7-3.08-2.23-5-.53-1.92-.79-3.98-.79-6.19v-26.42c0-2.26.28-4.36.83-6.3.55-1.94,1.31-3.64,2.27-5.08.96-1.44,2.12-2.57,3.49-3.38,1.37-.82,2.87-1.22,4.5-1.22h24.26Z"/>
    <path d="m89.49,18.36v7.27h-18.65c-.82,0-1.54.24-2.16.72-.62.48-1.16,1.12-1.62,1.91s-.8,1.72-1.04,2.77c-.24,1.06-.36,2.16-.36,3.31v26.42c0,1.1.12,2.17.36,3.2.24,1.03.58,1.96,1.01,2.77.43.82.97,1.46,1.62,1.94.65.48,1.38.72,2.2.72h18.65v7.13h-23.47c-1.68,0-3.19-.41-4.54-1.22-1.34-.82-2.5-1.93-3.46-3.35-.96-1.42-1.7-3.08-2.23-5-.53-1.92-.79-3.98-.79-6.19v-26.42c0-2.26.26-4.36.79-6.3.53-1.94,1.28-3.64,2.27-5.08.98-1.44,2.15-2.57,3.49-3.38,1.34-.82,2.83-1.22,4.46-1.22h23.47Z"/>
  </g>
  <path d="m93.07,94.9H11.93c-6.58,0-11.93-5.61-11.93-12.5V12.5C0,5.61,5.35,0,11.93,0h81.14c6.58,0,11.93,5.61,11.93,12.5v69.9c0,6.89-5.35,12.5-11.93,12.5ZM11.93,5c-3.95,0-7.16,3.36-7.16,7.5v69.9c0,4.14,3.21,7.5,7.16,7.5h81.14c3.95,0,7.16-3.36,7.16-7.5V12.5c0-4.14-3.21-7.5-7.16-7.5H11.93Z"/>
  <rect x="2.5" y="2.5" width="96.8" height="89.9" rx="10" ry="10" fill="none"/>
</svg>